# xmcd
#
# Track frame offsets:
#	150
#	15610
#	28222
#	36760
#	48379
#	64065
#	72855
#	83895
#	94995
#	107047
#	120716
#	130535
#
# Disc length: 1875 seconds
#
# Revision: 0
# Processed by: cddbd v1.5.2PL0 Copyright (c) Steve Scherf et al.
# Submitted via: EasyCDDAExtractor 10.1.0.1
#
DISCID=9e07510c
DTITLE=Various Artist - Country Tears
DYEAR=1900
DGENRE=Country
TTITLE0=Boxcar Willie - I love you because
TTITLE1=Johnny Russel - All I have to offer you is me
TTITLE2=Sonny James - Bimbo
TTITLE3=Hohnny Paycheck - Release me
TTITLE4=Don Williams - Tears
TTITLE5=Waylon Jennings - Loves gonna live here
TTITLE6=George Jones  - Tender Years
TTITLE7=Faron Young - Crying Time
TTITLE8=Jim Reeves - Your old love letters
TTITLE9=Willie Nelson - Undo the wrong
TTITLE10=Carl Perkins - This ole house
TTITLE11=Porter Wagoner - Green green grass of home
EXTD=
EXTT0=
EXTT1=
EXTT2=
EXTT3=
EXTT4=
EXTT5=
EXTT6=
EXTT7=
EXTT8=
EXTT9=
EXTT10=
EXTT11=
PLAYORDER=
